{
	"asset":{
		"generator":"Khronos glTF Blender I/O v4.2.70",
		"version":"2.0"
	},
	"extensionsUsed":[
		"KHR_materials_specular"
	],
	"scene":0,
	"scenes":[
		{
			"name":"Scene",
			"nodes":[
				0
			]
		}
	],
	"nodes":[
		{
			"mesh":0,
			"name":"Zorro Zbrush",
			"rotation":[
				0.7071067690849304,
				0,
				0,
				0.7071068286895752
			],
			"scale":[
				0.21886584162712097,
				0.21886584162712097,
				0.21886584162712097
			]
		}
	],
	"materials":[
		{
			"doubleSided":true,
			"extensions":{
				"KHR_materials_specular":{
					"specularColorFactor":[
						2.0,
						2.0,
						2.0
					]
				}
			},
			"name":"Zorro Zbrush.001",
			"pbrMetallicRoughness":{
				"baseColorFactor":[
					0.5380235910415649,
					0.21369102597236633,
					0.05687428265810013,
					1
				]
			}
		}
	],
	"meshes":[
		{
			"name":"Zorro Zbrush",
			"primitives":[
				{
					"attributes":{
						"POSITION":0,
						"NORMAL":1
					},
					"indices":2,
					"material":0
				}
			]
		}
	],
	"accessors":[
		{
			"bufferView":0,
			"componentType":5126,
			"count":7687,
			"max":[
				1.507672667503357,
				3.816035509109497,
				0.02756131999194622
			],
			"min":[
				-1.5072296857833862,
				-5.588370323181152,
				-6.368014812469482
			],
			"type":"VEC3"
		},
		{
			"bufferView":1,
			"componentType":5126,
			"count":7687,
			"type":"VEC3"
		},
		{
			"bufferView":2,
			"componentType":5123,
			"count":46110,
			"type":"SCALAR"
		}
	],
	"bufferViews":[
		{
			"buffer":0,
			"byteLength":92244,
			"byteOffset":0,
			"target":34962
		},
		{
			"buffer":0,
			"byteLength":92244,
			"byteOffset":92244,
			"target":34962
		},
		{
			"buffer":0,
			"byteLength":92220,
			"byteOffset":184488,
			"target":34963
		}
	],
	"buffers":[
		{
			"byteLength":276708,
			"uri":"Zorro.bin"
		}
	]
}
